<svg width="5217" height="4729" viewBox="0 0 5217 4729" fill="none" xmlns="http://www.w3.org/2000/svg">
<path fill-rule="evenodd" clip-rule="evenodd" d="M2740.89 440H4687.21C4688.77 440 4690.32 440.308 4691.77 440.907C4693.21 441.505 4694.52 442.383 4695.63 443.489C4696.73 444.595 4697.61 445.908 4698.21 447.353C4698.8 448.798 4699.11 450.346 4699.11 451.91V2563.36C4699.11 2566.52 4697.86 2569.54 4695.62 2571.77C4693.39 2574.01 4690.37 2575.26 4687.21 2575.26H2740.89C2737.73 2575.26 2734.71 2574 2732.48 2571.77C2730.25 2569.54 2729 2566.51 2729 2563.36V451.94C2728.99 450.375 2729.3 448.824 2729.89 447.376C2730.49 445.928 2731.36 444.612 2732.47 443.503C2733.57 442.394 2734.88 441.514 2736.33 440.913C2737.77 440.311 2739.32 440.001 2740.89 440Z" fill="#EAF0FF"/>
<path d="M3867.43 1399.1L3333.85 5L4808 240L3867.43 1399.1Z" stroke="#B2C3FB" stroke-width="10" stroke-linecap="round" stroke-linejoin="round"/>
<path fill-rule="evenodd" clip-rule="evenodd" d="M3151.92 2335.27H5204.24C5207.4 2335.27 5210.42 2336.52 5212.66 2338.76C5214.89 2340.99 5216.14 2344.01 5216.14 2347.17V2399.43C5216.14 2400.99 5215.84 2402.54 5215.24 2403.99C5214.64 2405.43 5213.77 2406.74 5212.66 2407.85C5211.55 2408.96 5210.24 2409.83 5208.8 2410.43C5207.35 2411.03 5205.81 2411.34 5204.24 2411.34H3151.92C3148.76 2411.34 3145.73 2410.09 3143.5 2407.85C3141.27 2405.62 3140.01 2402.59 3140.01 2399.43V2347.17C3140.01 2344.01 3141.27 2340.99 3143.5 2338.75C3145.74 2336.52 3148.76 2335.27 3151.92 2335.27Z" fill="#8088DC"/>
<path d="M3277.81 2390.11H3116.55C3114.99 2390.11 3113.44 2389.8 3111.99 2389.21C3110.55 2388.61 3109.24 2387.73 3108.13 2386.63C3107.02 2385.52 3106.15 2384.21 3105.55 2382.77C3104.95 2381.32 3104.64 2379.77 3104.64 2378.21V2325.94C3104.64 2324.38 3104.95 2322.83 3105.55 2321.38C3106.15 2319.94 3107.02 2318.63 3108.13 2317.52C3109.24 2316.42 3110.55 2315.54 3111.99 2314.94C3113.44 2314.35 3114.99 2314.04 3116.55 2314.04H4796.68" stroke="#1B3C87" stroke-width="20" stroke-linecap="round" stroke-linejoin="round"/>
<path d="M4981.85 2314H5168.85C5172.01 2314 5175.03 2315.26 5177.27 2317.49C5179.5 2319.72 5180.76 2322.74 5180.76 2325.9V2378.17C5180.76 2381.33 5179.5 2384.35 5177.27 2386.58C5175.03 2388.81 5172.01 2390.07 5168.85 2390.07H3477.85" stroke="#1B3C87" stroke-width="20" stroke-linecap="round" stroke-linejoin="round"/>
<path d="M3328 3222.45V4615.81" stroke="#1B3C87" stroke-width="20" stroke-linecap="round" stroke-linejoin="round"/>
<path d="M3328 2396.43V2939.43" stroke="#1B3C87" stroke-width="20" stroke-linecap="round" stroke-linejoin="round"/>
<path fill-rule="evenodd" clip-rule="evenodd" d="M3029 3999.09L3280.62 4288.29L3742.51 3825.65L3326.12 3914.09L3230.9 3812.58" fill="white"/>
<path fill-rule="evenodd" clip-rule="evenodd" d="M1756.89 4143L1727 4395L1669.9 4541.14L2262.9 4728.95L1981.57 4419.18L2049.94 4219" fill="white"/>
<path d="M1434.46 1954.16C1459.82 1943.53 1650.65 1875.16 1675.46 1869.68C1700.27 1864.2 1711.79 1802.68 1760.99 1799.01" stroke="#1B3C87" stroke-width="20" stroke-linecap="round" stroke-linejoin="round"/>
<path fill-rule="evenodd" clip-rule="evenodd" d="M1694.71 1725.83H1943.34L1897.72 2068.35H1734.31L1694.71 1725.83Z" fill="#D7E0FF"/>
<path fill-rule="evenodd" clip-rule="evenodd" d="M1661.22 1678.36H1976.83C1984.21 1678.36 1990.2 1682.72 1990.2 1688.08V1715.36C1990.2 1720.73 1984.2 1725.08 1976.83 1725.08H1661.22C1653.84 1725.08 1647.85 1720.73 1647.85 1715.36V1688.08C1647.85 1682.72 1653.84 1678.36 1661.22 1678.36Z" fill="#B2C3FB"/>
<path fill-rule="evenodd" clip-rule="evenodd" d="M1696.69 1640.32H1941.36C1948.74 1640.32 1954.73 1644.67 1954.73 1650.04V1668.47C1954.73 1673.84 1948.73 1678.19 1941.36 1678.19H1696.69C1689.32 1678.19 1683.33 1673.84 1683.33 1668.47V1650C1683.33 1644.67 1689.32 1640.32 1696.69 1640.32Z" fill="#D7E0FF"/>
<path d="M1719.8 1381.79C1699.8 1417.08 1724.66 1456.95 1743.07 1489.49C1761.48 1522.03 1760.91 1570.14 1739.27 1595.81" stroke="#1B3C87" stroke-width="20" stroke-linecap="round" stroke-linejoin="round"/>
<path d="M1799.19 1381.79C1779.19 1417.08 1804.07 1456.95 1822.46 1489.49C1840.85 1522.03 1840.33 1570.14 1818.67 1595.81" stroke="#1B3C87" stroke-width="20" stroke-linecap="round" stroke-linejoin="round"/>
<path d="M1878.61 1381.79C1858.61 1417.08 1883.47 1456.95 1901.87 1489.49C1920.27 1522.03 1919.72 1570.14 1898.08 1595.81" stroke="#1B3C87" stroke-width="20" stroke-linecap="round" stroke-linejoin="round"/>
<path fill-rule="evenodd" clip-rule="evenodd" d="M254.101 3118H1556.1C1557.66 3118 1559.21 3118.31 1560.66 3118.91C1562.1 3119.51 1563.41 3120.38 1564.52 3121.49C1565.62 3122.6 1566.5 3123.91 1567.1 3125.35C1567.7 3126.8 1568 3128.35 1568 3129.91V4525.16C1568 4526.72 1567.7 4528.27 1567.1 4529.72C1566.5 4531.16 1565.62 4532.47 1564.52 4533.58C1563.41 4534.69 1562.1 4535.56 1560.66 4536.16C1559.21 4536.76 1557.66 4537.07 1556.1 4537.07H254.101C250.943 4537.07 247.913 4535.82 245.68 4533.58C243.446 4531.35 242.191 4528.32 242.191 4525.16V3129.91C242.191 3126.75 243.446 3123.72 245.68 3121.49C247.913 3119.25 250.943 3118 254.101 3118Z" fill="#D7E0FF"/>
<path d="M3445.94 4052.81L3705.94 3792.39L3289.56 3880.83L3194.36 3779.32" stroke="#1B3C87" stroke-width="20" stroke-linecap="round" stroke-linejoin="round"/>
<path d="M2992.43 3965.83L3244.06 4255L3368.79 4130.06" stroke="#1B3C87" stroke-width="20" stroke-linecap="round" stroke-linejoin="round"/>
<path fill-rule="evenodd" clip-rule="evenodd" d="M2310 3531.69C2388.27 3581.48 2959 3985.05 2992.89 4012.2C3036.09 3975.48 3159.8 3861.13 3196.74 3821.43C3162.83 3775.63 2499.43 3024.72 2460.85 3003.15C2422.27 2981.58 2231.72 3481.89 2310 3531.69Z" fill="#3C3744"/>
<path d="M2914.72 3964.81L3187.13 3713.4" stroke="#1B3C87" stroke-width="20" stroke-linecap="round" stroke-linejoin="round"/>
<path d="M2945.92 4003.41L3224 3750.16" stroke="#1B3C87" stroke-width="20" stroke-linecap="round" stroke-linejoin="round"/>
<path d="M2267 3449.66C2345.28 3499.45 2916 3903.02 2949.88 3930.18C2993.08 3893.45 3116.79 3779.11 3153.75 3739.4C3119.83 3693.61 2456.43 2942.7 2417.84 2921.12C2379.25 2899.54 2188.76 3399.87 2267 3449.66Z" stroke="#1B3C87" stroke-width="20" stroke-linecap="round" stroke-linejoin="round"/>
<path d="M1694 4081.68L2048.79 4182.22" stroke="#1B3C87" stroke-width="20" stroke-linecap="round" stroke-linejoin="round"/>
<path d="M1707.6 4024.67L2071.16 4121.32" stroke="#1B3C87" stroke-width="20" stroke-linecap="round" stroke-linejoin="round"/>
<path d="M2039.6 4465.49L1958.3 4376L2026.66 4175.76" stroke="#1B3C87" stroke-width="20" stroke-linecap="round" stroke-linejoin="round"/>
<path d="M1733.61 4099.71L1703.71 4351.81L1646.6 4497.94L2239.6 4685.75L2110 4543" stroke="#1B3C87" stroke-width="20" stroke-linecap="round" stroke-linejoin="round"/>
<path fill-rule="evenodd" clip-rule="evenodd" d="M632.731 2697C513.601 3364.63 1704.41 3353.41 1864 3345.81C1860.2 3435.12 1776.16 4006.21 1778.29 4085.7C1848.4 4100.96 2028.86 4150.44 2074.75 4164.7C2109.75 4098.99 2524.44 3198.19 2484.21 2946.01C2469.01 2850.72 1444.55 2572.28 1360.82 2574.52C1277.09 2576.76 638.941 2662.28 632.731 2697Z" fill="#3C3744"/>
<path d="M1754.76 3855.29C1744.33 3941.8 1737.16 4010.29 1737.76 4034.29C1807.86 4049.56 1988.32 4099.04 2034.21 4113.29C2069.21 4047.58 2483.9 3146.78 2443.67 2894.6C2436.2 2847.77 2184.93 2756.69 1921.37 2676.44" stroke="#1B3C87" stroke-width="20" stroke-linecap="round" stroke-linejoin="round"/>
<path d="M1723.75 2618.75C1524.06 2562.92 1352.54 2522.22 1320.32 2523.08C1236.6 2525.33 598.441 2610.84 592.231 2645.58C473.101 3313.19 1663.9 3302 1823.5 3294.37C1821.76 3335.23 1803.23 3476.94 1783.84 3626.28" stroke="#1B3C87" stroke-width="20" stroke-linecap="round" stroke-linejoin="round"/>
<path fill-rule="evenodd" clip-rule="evenodd" d="M1463.42 700.11C1467.17 609.72 1345.73 484 1173.79 484C825.29 484 757.73 841.65 490.62 1327.9C416.46 1462.9 38.3203 1751.9 38.3203 2103.73C38.3203 2455.56 317.08 2541.9 580.14 2541.9C843.2 2541.9 1417.22 2007.9 1417.22 1857.16C1417.22 1706.42 1318 1498.75 1318 1286.88C1318 1075.01 1347.23 955.47 1347.23 899.67C1347.23 843.87 1461.65 863.84 1463.42 700.11Z" fill="#FB5D64"/>
<path d="M393.9 1401.08C260.73 1555 10 1799.84 10 2086.35C10 2438.19 288.76 2524.52 551.82 2524.52C814.88 2524.52 1388.9 1990.52 1388.9 1839.78C1388.9 1689.04 1289.65 1481.39 1289.65 1269.53C1289.65 1057.67 1318.88 938.11 1318.88 882.32C1318.88 826.53 1433.34 846.48 1435.1 682.75C1438.85 592.36 1317.43 466.62 1145.47 466.62C874.17 466.62 773.13 683.36 615.67 1008.8" stroke="#1B3C87" stroke-width="20" stroke-linecap="round" stroke-linejoin="round"/>
<path fill-rule="evenodd" clip-rule="evenodd" d="M1322.81 1394C1445.22 1365.69 1540.05 1704.65 1523.81 1768.34C1479.23 1784.61 1425.44 1786.74 1415.54 1771.17C1405.64 1755.6 1249.42 1411 1322.81 1394Z" fill="#46DBC9"/>
<path d="M1290.25 1364.73C1412.68 1336.43 1507.49 1675.39 1491.25 1739.07C1446.67 1755.35 1392.88 1757.47 1382.99 1741.91C1373.1 1726.35 1216.86 1381.7 1290.25 1364.73Z" stroke="#1B3C87" stroke-width="20" stroke-linecap="round" stroke-linejoin="round"/>
<path fill-rule="evenodd" clip-rule="evenodd" d="M1112.47 1283.5C1648.09 1283.5 1471.98 2469.18 1382.47 2566.03C1292.96 2662.88 660.5 2778.81 604.73 2726C548.96 2673.19 603.27 1282 1112.47 1283.5Z" fill="#46DBC9"/>
<path d="M1050.14 2649.77C845.861 2697.41 612.711 2724.89 579.841 2693.77C560.591 2675.53 554.451 2497.67 575.641 2272.69" stroke="#1B3C87" stroke-width="20" stroke-linecap="round" stroke-linejoin="round"/>
<path d="M1452.93 1786.32C1478.93 2114.52 1405.73 2481.71 1357.58 2533.81C1338.27 2554.7 1293.71 2576.48 1235.1 2597.26" stroke="#1B3C87" stroke-width="20" stroke-linecap="round" stroke-linejoin="round"/>
<path d="M592 2131.61C647.56 1726.06 789.77 1250.42 1087.63 1251.28C1294.04 1251.28 1394.77 1427.4 1435.47 1649.42" stroke="#1B3C87" stroke-width="20" stroke-linecap="round" stroke-linejoin="round"/>
<path fill-rule="evenodd" clip-rule="evenodd" d="M784.07 1953.85C800.85 2000.77 968.24 2449.9 1046.57 2481.85C1203.06 2545.58 1723.37 2066.24 1779.73 2042.66C1842.89 2017.19 1834.84 2042.23 1889.32 2042.23C1943.8 2042.23 1992.93 1978.88 1992.93 1934.11C1992.93 1889.34 1939 1821.48 1891.93 1821.48C1844.86 1821.48 1747.79 1913.48 1711.41 1929.22C1675.03 1944.96 1256.17 2151.84 1234.77 2157.55C1222.64 2103.32 1169.12 1929.93 1139.15 1860.72C1109.18 1791.51 767.29 1906.94 784.07 1953.85Z" fill="white"/>
<path d="M1637.71 1929.68C1522.71 1985.02 1220.62 2133.68 1202.52 2138.46C1190.39 2084.23 1136.88 1910.84 1106.92 1841.63C1076.96 1772.42 735.058 1887.9 751.848 1934.81C768.638 1981.72 936.018 2430.86 1014.35 2462.81C1047.35 2476.25 1096.49 2465.54 1154.08 2440.06" stroke="#1B3C87" stroke-width="20" stroke-linecap="round" stroke-linejoin="round"/>
<path d="M1314.73 2348.52C1506.38 2221.68 1713.15 2037.94 1747.5 2023.52C1810.66 1998.05 1800 2012.01 1834.5 2023.95C1888.97 2023.95 1960.66 1959.74 1960.66 1914.95C1960.66 1870.16 1906.74 1802.32 1859.66 1802.32C1831.97 1802.32 1787.02 1834.14 1747.27 1863.56" stroke="#1B3C87" stroke-width="20" stroke-linecap="round" stroke-linejoin="round"/>
<path fill-rule="evenodd" clip-rule="evenodd" d="M805.999 1387C986.869 1309.65 1195 1803.31 1160.89 1880.65C1126.78 1957.99 799.189 2039.9 749.129 2001.22C699.069 1962.54 637.599 1459 805.999 1387Z" fill="#46DBC9"/>
<path d="M1080.35 1914.66C973.201 1970.55 770.901 2012 732.461 1982.3C719.461 1972.3 705.751 1931.05 695.461 1874.2" stroke="#1B3C87" stroke-width="20" stroke-linecap="round" stroke-linejoin="round"/>
<path d="M682.719 1597.79C692.609 1490.9 723.309 1396.31 789.329 1368.07C932.169 1306.98 1092.02 1602.07 1136.11 1766.93" stroke="#1B3C87" stroke-width="20" stroke-linecap="round" stroke-linejoin="round"/>
<path fill-rule="evenodd" clip-rule="evenodd" d="M1056.09 1045.3C1062.59 1094.05 1060.63 1284.49 1044.38 1348.84C1068.44 1374.19 1182.84 1402.84 1249.13 1378.09C1245.23 1335.84 1250.44 1229.24 1259.54 1192.19C1268.64 1155.14 1049.59 996.55 1056.09 1045.3Z" fill="white"/>
<path d="M1229.25 1352C1225.35 1309.75 1230.56 1203.16 1239.65 1166.11C1248.74 1129.06 1029.72 970.47 1036.22 1019.21C1042.72 1067.95 1040.76 1258.41 1024.51 1322.75C1037.26 1336.19 1075.4 1350.54 1118.31 1357.38" stroke="#1B3C87" stroke-width="20" stroke-linecap="round" stroke-linejoin="round"/>
<path fill-rule="evenodd" clip-rule="evenodd" d="M1005.8 931.51C985.92 763.83 1066.46 617.17 1185.71 603.93C1304.96 590.69 1417.71 715.93 1437.6 883.59C1457.49 1051.25 1376.94 1197.93 1257.7 1211.16C1138.46 1224.39 1025.68 1099.19 1005.8 931.51Z" fill="white"/>
<path d="M1414.31 950.81C1401.17 1076.62 1330.02 1174.62 1233.58 1185.32C1114.34 1198.56 1001.58 1073.32 981.679 905.67C961.779 738.02 1042.35 591.33 1161.59 578.09C1277.11 565.27 1386.59 682.42 1411.36 842.24" stroke="#1B3C87" stroke-width="20" stroke-linecap="round" stroke-linejoin="round"/>
<path fill-rule="evenodd" clip-rule="evenodd" d="M1420.36 786.74C1397.24 786.74 1336.85 765.98 1320.82 714.55C1303.35 763.15 1165.59 924.04 1079.72 952.34C1086.8 984.9 1092.94 1101.91 1006.59 1163.24C920.24 1224.57 855.13 827.79 896.19 757.49C937.25 687.19 1111.81 550.36 1162.75 550.83C1213.69 551.3 1428.86 552.25 1420.36 786.74Z" fill="#FB5D64"/>
<path d="M1186.72 840.4C1144.72 881.51 1098.85 917.48 1062.36 929.51C1067.76 954.38 1072.62 1028.51 1036.13 1089.51" stroke="#1B3C87" stroke-width="20" stroke-linecap="round" stroke-linejoin="round"/>
<path d="M1403 763.9C1379.88 763.9 1319.49 743.14 1303.45 691.72C1297.72 707.65 1279.07 735.66 1253.55 767.11" stroke="#1B3C87" stroke-width="20" stroke-linecap="round" stroke-linejoin="round"/>
<path fill-rule="evenodd" clip-rule="evenodd" d="M1006.42 969.53C1006.42 958.77 1009.61 948.252 1015.59 939.304C1021.56 930.357 1030.06 923.383 1040 919.264C1049.94 915.145 1060.88 914.066 1071.43 916.164C1081.98 918.262 1091.68 923.442 1099.28 931.05C1106.89 938.657 1112.08 948.351 1114.18 958.903C1116.28 969.456 1115.2 980.395 1111.08 990.336C1106.96 1000.28 1099.99 1008.77 1091.05 1014.75C1082.1 1020.73 1071.58 1023.92 1060.82 1023.92C1053.68 1023.92 1046.6 1022.52 1040 1019.78C1033.4 1017.05 1027.41 1013.04 1022.36 1007.99C1017.3 1002.94 1013.3 996.946 1010.56 990.346C1007.83 983.747 1006.42 976.673 1006.42 969.53Z" fill="white"/>
<path d="M1045.6 1008.2C1037.4 1008.2 1029.31 1006.34 1021.93 1002.77C1014.55 999.204 1008.08 994.014 1002.99 987.59C997.894 981.166 994.32 973.674 992.531 965.675C990.741 957.675 990.783 949.375 992.652 941.394C994.522 933.413 998.17 925.958 1003.33 919.585C1008.48 913.212 1015.01 908.087 1022.43 904.592C1029.84 901.097 1037.95 899.323 1046.14 899.402C1054.34 899.482 1062.41 901.412 1069.76 905.05" stroke="#1B3C87" stroke-width="20" stroke-linecap="round" stroke-linejoin="round"/>
<path d="M1313.35 942.55C1313.35 969.25 1329.9 1006.55 1344.82 1022.79" stroke="#1B3C87" stroke-width="20" stroke-linecap="round" stroke-linejoin="round"/>
<path fill-rule="evenodd" clip-rule="evenodd" d="M1226.93 896.9C1226.93 881.9 1233.72 869.66 1242.09 869.66C1250.46 869.66 1257.23 881.86 1257.23 896.9C1257.23 911.94 1250.46 924.13 1242.09 924.13C1233.72 924.13 1226.93 911.94 1226.93 896.9Z" fill="#1B3C87"/>
<path d="M1205.29 1044.13C1214.85 1068 1233.4 1080.2 1256.75 1081.8" stroke="#1B3C87" stroke-width="20" stroke-linecap="round" stroke-linejoin="round"/>
<path d="M4940.39 4244.45V4615.81" stroke="#1B3C87" stroke-width="20" stroke-linecap="round" stroke-linejoin="round"/>
<path d="M4940.39 2396.43V3946.07" stroke="#1B3C87" stroke-width="20" stroke-linecap="round" stroke-linejoin="round"/>
<rect x="3236" y="2266" width="925" height="69" fill="#FB5D64" fill-opacity="0.86"/>
<mask id="path-60-inside-1_79_385" fill="white">
<rect x="3197" y="2233" width="921" height="83" rx="12"/>
</mask>
<rect x="3197" y="2233" width="921" height="83" rx="12" stroke="#1B3C87" stroke-width="30" mask="url(#path-60-inside-1_79_385)"/>
<line x1="4110.52" y1="2236.23" x2="4548.52" y2="1484.23" stroke="#1B3C87" stroke-width="15"/>
</svg>
