<svg width="4503" height="4321" viewBox="0 0 4503 4321" fill="none" xmlns="http://www.w3.org/2000/svg">
<mask id="mask0_91_388" style="mask-type:luminance" maskUnits="userSpaceOnUse" x="-1" y="0" width="4504" height="4321">
<path d="M-0.000488281 0H4502.54V4321H-0.000488281V0Z" fill="white"/>
</mask>
<g mask="url(#mask0_91_388)">
<path d="M465.059 46.3146C140.946 218.207 167.637 907.88 154.316 1512.18C140.994 2116.48 87.4686 2635.16 238.304 3168.65C389.14 3702.14 743.812 4250.09 1190.59 4314.12C1638.7 4379.49 2180.17 3962.03 2792.34 3739.33C3404.52 3516.64 4087.12 3488.56 4358.09 3156.47C4629.06 2824.39 4486.11 2188.24 4200.72 1752.35C3913.99 1316.22 3484.5 1081.49 3116.41 917.477C2749.66 753.415 2442.92 660.068 1953.46 439.997C1462.66 221.024 789.125 -125.721 465.059 46.3146Z" fill="#F0F0F0"/>
<path d="M4046.54 2542.39C4079.97 2532.84 4180.24 2470.77 4199.34 2446.89C4218.43 2423.02 4263.8 2480.94 4181.43 2559.29" fill="white"/>
<path d="M4084.74 2504.19C4118.16 2494.64 4218.43 2432.57 4237.53 2408.69C4256.63 2384.82 4301.99 2442.74 4219.63 2521.09" stroke="#1B3C87" stroke-width="4.78" stroke-linecap="round" stroke-linejoin="round"/>
<path d="M3664.55 2690.41C3688.42 2661.76 3769.59 2542.39 3783.92 2504.19C3798.24 2465.99 3895.79 2427.79 3832.71 2690.41" fill="white"/>
<path d="M3712.29 2642.66C3736.17 2614.01 3817.34 2494.64 3831.66 2456.44C3844.03 2423.54 3918.09 2390.64 3898.08 2550.03" stroke="#1B3C87" stroke-width="4.78" stroke-linecap="round" stroke-linejoin="round"/>
<path d="M3132.75 3123.77C3163.21 3186.99 3296.9 3435.27 3296.9 3435.27C3296.9 3435.27 3602.49 2781.13 3635.92 2766.8C3669.34 2752.48 4180.24 2575.81 4275.74 2523.29C4313.94 2504.19 4428.53 2537.61 4218.44 2676.08C4008.35 2814.55 3803.03 2929.15 3779.16 2976.89C3755.29 3024.64 3583.39 3764.74 3583.39 3764.74H2943C2900.6 3764.74 2757.35 3296.81 2757.35 3296.81C2757.35 3296.81 3097.46 3084.52 3132.75 3123.77Z" fill="white"/>
<path d="M3677.01 3521.6C3650.46 3633.91 3631.12 3716.99 3631.12 3716.99H2990.73C2948.33 3716.99 2805.08 3249.06 2805.08 3249.06C2805.08 3249.06 3145.19 3036.77 3180.48 3076.02C3210.94 3139.24 3344.63 3387.53 3344.63 3387.53C3344.63 3387.53 3650.22 2733.38 3683.65 2719.06C3693.96 2714.66 3749.54 2694.85 3824.31 2668.01" stroke="#1B3C87" stroke-width="4.78" stroke-linecap="round" stroke-linejoin="round"/>
<path d="M4137.82 2710.94C3978.82 2811.21 3845.84 2891.28 3826.89 2929.15C3814.33 2954.31 3760.57 3171.99 3712.58 3372.15" stroke="#1B3C87" stroke-width="4.78" stroke-linecap="round" stroke-linejoin="round"/>
<path d="M3949.65 2622.8C4101.97 2567.46 4272.33 2503.66 4323.47 2475.54C4358.28 2458.16 4456.4 2484.33 4315.02 2593.72" stroke="#1B3C87" stroke-width="4.78" stroke-linecap="round" stroke-linejoin="round"/>
<path d="M2267.64 2341.85C1981.43 2490.44 2301.78 3229.96 2477.73 3417.13C2621.78 3448.36 3129.96 3204.27 3192.75 3042.21C3139.94 2882.5 2675.49 2130.04 2267.64 2341.85Z" fill="#46DBC9"/>
<path d="M297.23 1038.33L11.4104 1693.86L1176.89 1892.3L297.23 1038.33Z" stroke="#B6C6FC" stroke-width="4.78" stroke-linecap="round" stroke-linejoin="round"/>
<path d="M3554.52 1019.18L4116.5 1687.27L3528.73 2181.7L2966.75 1513.61L3554.52 1019.18Z" stroke="#B6C6FC" stroke-width="4.78" stroke-linecap="round" stroke-linejoin="round"/>
<path d="M2846.24 2441.45C2684.85 2294.19 2494.67 2200.99 2315.38 2294.1C2029.18 2442.69 2349.52 3182.21 2525.47 3369.38C2669.53 3400.61 3177.71 3156.52 3240.5 2994.47C3224.02 2944.57 3167.35 2836.9 3084.75 2718.58" stroke="#1B3C87" stroke-width="4.78" stroke-linecap="round" stroke-linejoin="round"/>
<path d="M2333.34 2168.38C2217.98 2091.07 2083.43 2045.81 1926.53 2045.81C1334.45 2045.81 1086.16 2828.88 1071.84 3721.76" stroke="#1B3C87" stroke-width="4.78" stroke-linecap="round" stroke-linejoin="round"/>
<path d="M2841.58 2976.61C2765.18 2729.51 2656.65 2491.87 2503.05 2318.59" stroke="#1B3C87" stroke-width="4.78" stroke-linecap="round" stroke-linejoin="round"/>
<path d="M2990.79 3717.75C2978.47 3610.46 2961.24 3490.47 2937.27 3365.32" stroke="#1B3C87" stroke-width="4.78" stroke-linecap="round" stroke-linejoin="round"/>
<path d="M1025.24 3716.99C1048.35 2846.16 1298.36 2093.56 1878.79 2093.56C2615.11 2093.56 2859.19 3090.73 2937.26 3716.99H1025.24Z" fill="#46DBC9"/>
<path d="M694.431 3372.1L832.9 3048.52L1362.9 3373.2C1346.67 3431.65 1290.71 3609.27 1256.57 3716.99" stroke="#1B3C87" stroke-width="4.78" stroke-linecap="round" stroke-linejoin="round"/>
<path d="M697.024 3719.57V3302.39L785.357 3096.26L1315.36 3420.95C1301.04 3471.75 1257.11 3612.66 1223.4 3719.38L697.024 3719.57Z" fill="white"/>
<path d="M1406.07 2289.32C1114.8 2150.85 718.496 2852.75 675.523 3105.81C737.595 3239.51 1238.95 3497.35 1406.07 3449.6C1501.56 3311.13 1821.14 2486.67 1406.07 2289.32Z" fill="#46DBC9"/>
<path d="M1163.99 2318.59C949.415 2497.94 752.836 2884.07 723.28 3058.07C785.353 3191.76 1286.71 3449.6 1453.82 3401.85C1465.4 3384.29 1475.86 3366.01 1485.15 3347.13" stroke="#1B3C87" stroke-width="4.78" stroke-linecap="round" stroke-linejoin="round"/>
<path d="M1627.52 2936.5C1684.25 2680.81 1687.21 2394.32 1497.93 2266.79" stroke="#1B3C87" stroke-width="4.78" stroke-linecap="round" stroke-linejoin="round"/>
<path d="M859.94 747.064H694.636V3716.99H3664.56V3574.27" stroke="#1B3C87" stroke-width="4.78" stroke-linecap="round" stroke-linejoin="round"/>
<path d="M3664.56 977.066V747.064H1497.95" stroke="#1B3C87" stroke-width="4.78" stroke-linecap="round" stroke-linejoin="round"/>
<path d="M3664.56 2743.6V1703.46" stroke="#1B3C87" stroke-width="4.78" stroke-linecap="round" stroke-linejoin="round"/>
<path d="M1656.76 1642.53C1680.63 1738.03 1723.6 1943.34 1709.28 2220.28C1790.45 2291.9 2062.62 2306.23 2186.76 2210.73C2162.89 2062.71 2162.89 1919.47 2167.66 1823.97C2172.44 1728.48 1656.76 1642.53 1656.76 1642.53Z" fill="white"/>
<path d="M2224.96 2172.53C2201.08 2024.51 2201.08 1881.27 2205.86 1785.77C2210.63 1690.28 1694.96 1604.33 1694.96 1604.33C1718.83 1699.83 1761.8 1905.14 1747.48 2182.08C1795.56 2224.48 1910.49 2246.78 2022.08 2238.14" stroke="#1B3C87" stroke-width="4.78" stroke-linecap="round" stroke-linejoin="round"/>
<path d="M2033.97 1940.76C1761.03 1940.76 1539.78 1658.58 1539.78 1310.49C1539.78 962.398 1761.03 680.217 2033.97 680.217C2306.9 680.217 2528.16 962.398 2528.16 1310.49C2528.16 1658.58 2306.9 1940.76 2033.97 1940.76Z" fill="white"/>
<path d="M1851.52 1826.84C1917.18 1869.63 1993.78 1892.61 2072.16 1893.02C2223.71 1893.02 2359.32 1806.02 2449.99 1669.03" stroke="#1B3C87" stroke-width="4.78" stroke-linecap="round" stroke-linejoin="round"/>
<path d="M2540.72 1463.71C2557.85 1398.1 2566.47 1330.55 2566.36 1262.74C2566.36 914.66 2345.14 632.469 2072.16 632.469C1799.19 632.469 1577.97 914.66 1577.97 1262.74C1577.75 1345.06 1590.55 1426.89 1615.89 1505.21" stroke="#1B3C87" stroke-width="4.78" stroke-linecap="round" stroke-linejoin="round"/>
<path d="M2275.09 1205.44C2279.87 1253.19 2341.94 1386.89 2389.69 1434.63" stroke="#1B3C87" stroke-width="4.78" stroke-linecap="round" stroke-linejoin="round"/>
<path d="M2241.67 1625.63C2217.8 1625.63 2170.05 1616.08 2131.85 1558.78" stroke="#1B3C87" stroke-width="4.78" stroke-linecap="round" stroke-linejoin="round"/>
<path d="M2392.28 1246.28C2387.81 1219.62 2394.2 1196.33 2406.55 1194.26C2418.9 1192.19 2432.54 1212.12 2437.02 1238.77C2441.5 1265.43 2435.11 1288.72 2422.75 1290.79C2410.4 1292.87 2396.76 1272.94 2392.28 1246.28Z" fill="#1B3C87"/>
<path d="M1444.28 1052.65C1444.28 799.588 1721.22 627.695 1907.43 570.397C2057.98 524.082 2294.19 451.027 2418.34 451.027C2571.13 451.027 2690.5 608.596 2690.5 766.164C2690.5 938.057 2599.78 1066.98 2489.96 1095.62C2470.86 1038.33 2461.31 1014.45 2461.31 1014.45C2442.21 1038.33 1931.31 1100.4 1759.42 1095.62C1773.74 1157.7 1783.29 1377.34 1687.79 1382.11C1635.27 1386.89 1444.28 1444.19 1444.28 1052.65Z" fill="#FB5D64"/>
<path d="M1790.44 594.271C1842.72 564.682 1897.97 540.674 1955.27 522.649C2105.82 476.334 2342.03 403.279 2466.17 403.279C2584.92 403.279 2683.47 498.393 2721.48 614.755" stroke="#1B3C87" stroke-width="4.78" stroke-linecap="round" stroke-linejoin="round"/>
<path d="M1807.15 1047.88C1821.48 1109.95 1831.03 1329.59 1735.53 1334.36C1683.01 1339.14 1492.02 1396.44 1492.02 1004.9C1492.02 891.55 1547.6 794.527 1625.71 716.745" stroke="#1B3C87" stroke-width="4.78" stroke-linecap="round" stroke-linejoin="round"/>
<path d="M2726.31 823.939C2698.05 941.685 2623.85 1025.44 2537.9 1047.88C2518.8 990.579 2509.25 966.705 2509.25 966.705C2495.59 983.799 2229.59 1020.52 2016.59 1038.33" stroke="#1B3C87" stroke-width="4.78" stroke-linecap="round" stroke-linejoin="round"/>
<path d="M1654.37 1525.36C1583.17 1525.36 1525.45 1467.64 1525.45 1396.44C1525.45 1325.24 1583.17 1267.52 1654.37 1267.52C1725.57 1267.52 1783.29 1325.24 1783.29 1396.44C1783.29 1467.64 1725.57 1525.36 1654.37 1525.36Z" fill="white"/>
<path d="M1821.49 1358.24C1821.5 1330.82 1812.77 1304.11 1796.57 1281.99C1780.37 1259.87 1757.53 1243.5 1731.39 1235.24" stroke="#1B3C87" stroke-width="4.78" stroke-linecap="round" stroke-linejoin="round"/>
<path d="M1731.38 1235.24C1713.66 1229.68 1694.95 1228.01 1676.53 1230.35C1658.1 1232.69 1640.39 1238.98 1624.63 1248.8C1608.86 1258.61 1595.4 1271.72 1585.17 1287.22C1574.94 1302.72 1568.18 1320.25 1565.35 1338.6C1562.52 1356.96 1563.69 1375.71 1568.78 1393.57C1573.87 1411.43 1582.76 1427.99 1594.84 1442.09C1606.92 1456.2 1621.91 1467.53 1638.78 1475.31C1655.64 1483.08 1673.99 1487.13 1692.56 1487.16C1703.45 1487.16 1714.29 1485.79 1724.84 1483.1" stroke="#1B3C87" stroke-width="4.78" stroke-linecap="round" stroke-linejoin="round"/>
</g>
<ellipse cx="2095.89" cy="1276.41" rx="24.4116" ry="54.2339" transform="rotate(-19.2021 2095.89 1276.41)" fill="#1B3C87"/>
</svg>
