<svg width="56" height="48" viewBox="0 0 56 48" fill="none" xmlns="http://www.w3.org/2000/svg">
<path fill-rule="evenodd" clip-rule="evenodd" d="M16.284 3.98474C16.284 1.78403 18.0885 0 20.3145 0H34.1695C36.3955 0 38.2 1.78403 38.2 3.98474V21.9161C38.2 24.1168 36.3955 25.9008 34.1695 25.9008L33.7171 25.9008L25.9967 29.8855L25.9967 25.9008L20.3145 25.9008C18.0885 25.9008 16.284 24.1168 16.284 21.9161V3.98474ZM18.7744 3.98473C18.7744 3.15947 19.4434 2.49046 20.2687 2.49046H34.2153C35.0405 2.49046 35.7096 3.15947 35.7096 3.98473V21.916C35.7096 22.7413 35.0405 23.4103 34.2153 23.4103H20.2687C19.4434 23.4103 18.7744 22.7413 18.7744 21.916V3.98473ZM25.5157 21.3674H22.8306C22.7762 21.3674 22.7528 21.3285 22.7606 21.2506L25.4923 12.7169L22.8073 4.82528C22.7917 4.76302 22.8151 4.73189 22.8773 4.73189H25.5624C25.6402 4.73189 25.6869 4.76302 25.7025 4.82528L27.3018 10.5105L28.9245 4.82528C28.9401 4.76302 28.9906 4.73189 29.0762 4.73189H31.7263C31.7885 4.73189 31.8119 4.76302 31.7963 4.82528L29.1229 12.6936L31.8196 21.2506C31.8508 21.3285 31.8274 21.3674 31.7496 21.3674H29.0762C29.0062 21.3674 28.9556 21.3285 28.9245 21.2506L27.3018 15.0751L25.6558 21.2506C25.648 21.3285 25.6013 21.3674 25.5157 21.3674Z" fill="#673AB7"/>
<path d="M0 47.8575V34.7666H4.40657V36.7436H1.92676V40.2701H3.71079V42.1937H1.92676V45.8805H4.40657V47.8575H0Z" fill="#673AB7"/>
<path d="M5.39044 47.8575L7.51344 40.9825L5.42612 34.7666H7.31719L8.36977 38.0794L8.42329 38.3287H8.49466L8.54818 38.0794L9.60076 34.7666H11.4918L9.40451 40.9825L11.5275 47.8575H9.63644L8.53034 43.9569L8.49466 43.7076H8.42329L8.38761 43.9569L7.28151 47.8575H5.39044Z" fill="#673AB7"/>
<path d="M14.989 48C14.4419 48 13.975 47.8783 13.5885 47.6349C13.2079 47.3855 12.9165 47.0471 12.7143 46.6197C12.5181 46.1922 12.42 45.7083 12.42 45.1681V37.456C12.42 36.9217 12.521 36.4408 12.7232 36.0133C12.9314 35.5859 13.2287 35.2475 13.6153 34.9981C14.0018 34.7488 14.4597 34.6241 14.989 34.6241C15.3874 34.6241 15.7442 34.6983 16.0594 34.8467C16.3746 34.9951 16.6422 35.2 16.8622 35.4612C17.0882 35.7165 17.2606 36.0163 17.3796 36.3606C17.4985 36.699 17.558 37.0642 17.558 37.456V39.2549H15.7561V37.456C15.7561 37.1829 15.6996 36.9543 15.5866 36.7703C15.4736 36.5862 15.2863 36.4942 15.0246 36.4942C14.7868 36.4942 14.6143 36.5892 14.5073 36.7792C14.4002 36.9692 14.3467 37.1948 14.3467 37.456V45.1681C14.3467 45.4293 14.4032 45.6549 14.5162 45.8449C14.6351 46.0349 14.8046 46.1299 15.0246 46.1299C15.2922 46.1299 15.4796 46.0378 15.5866 45.8538C15.6996 45.6697 15.7561 45.4412 15.7561 45.1681V43.3692H17.558V45.1681C17.558 45.7024 17.4539 46.1833 17.2458 46.6107C17.0376 47.0382 16.7403 47.3766 16.3538 47.626C15.9732 47.8753 15.5182 48 14.989 48Z" fill="#673AB7"/>
<path d="M18.9031 47.8575V34.7666H23.3097V36.7436H20.8299V40.2701H22.6139V42.1937H20.8299V45.8805H23.3097V47.8575H18.9031Z" fill="#673AB7"/>
<path d="M24.7396 47.8575V34.7666H26.6663V46.0764H29.2175V47.8575H24.7396Z" fill="#673AB7"/>
<path d="M30.0011 47.8575V34.7666H34.586V36.7436H31.9278V40.1811H33.7119V42.1581H31.9278V47.8575H30.0011Z" fill="#444444"/>
<path d="M35.3671 47.8575V34.7666H37.2939V46.0764H39.845V47.8575H35.3671Z" fill="#444444"/>
<path d="M43.1084 48C42.5732 48 42.1123 47.8753 41.7258 47.626C41.3452 47.3766 41.0508 47.0382 40.8427 46.6107C40.6405 46.1833 40.5394 45.7024 40.5394 45.1681V37.456C40.5394 36.9157 40.6405 36.4348 40.8427 36.0133C41.0508 35.5859 41.3452 35.2475 41.7258 34.9981C42.1123 34.7488 42.5732 34.6241 43.1084 34.6241C43.6436 34.6241 44.1015 34.7488 44.4821 34.9981C44.8687 35.2475 45.163 35.5859 45.3652 36.0133C45.5734 36.4408 45.6774 36.9217 45.6774 37.456V45.1681C45.6774 45.7024 45.5734 46.1833 45.3652 46.6107C45.163 47.0382 44.8687 47.3766 44.4821 47.626C44.1015 47.8753 43.6436 48 43.1084 48ZM43.1084 46.1299C43.3463 46.1299 43.5128 46.0319 43.608 45.836C43.7031 45.6341 43.7507 45.4115 43.7507 45.1681V37.456C43.7507 37.2126 43.7001 36.9929 43.599 36.797C43.4979 36.5951 43.3344 36.4942 43.1084 36.4942C42.8884 36.4942 42.7249 36.5951 42.6178 36.797C42.5167 36.9929 42.4662 37.2126 42.4662 37.456V45.1681C42.4662 45.4115 42.5167 45.6341 42.6178 45.836C42.7189 46.0319 42.8824 46.1299 43.1084 46.1299Z" fill="#444444"/>
<path d="M48.3428 47.8575L46.5766 34.7666H48.3606L49.1277 41.5703L49.1634 41.9978H49.3061L49.3597 41.5703L50.1803 34.7666H51.5719L52.3925 41.5703L52.446 41.9978H52.5888L52.6244 41.5703L53.3916 34.7666H55.1756L53.4094 47.8575H51.9108L51.0188 41.6593L50.9118 40.8935H50.8404L50.7334 41.6593L49.8413 47.8575H48.3428Z" fill="#444444"/>
</svg>
