<svg width="150" height="37" viewBox="0 0 150 37" fill="none" xmlns="http://www.w3.org/2000/svg">
<path d="M0.92 36V0.719999H12.776V6.048H6.104V15.552H10.904V20.736H6.104V30.672H12.776V36H0.92ZM15.4231 36L21.1351 17.472L15.5191 0.719999H20.6071L23.4391 9.648L23.5831 10.32H23.7751L23.9191 9.648L26.7511 0.719999H31.8391L26.2231 17.472L31.9351 36H26.8471L23.8711 25.488L23.7751 24.816H23.5831L23.4871 25.488L20.5111 36H15.4231ZM41.2483 36.384C39.7763 36.384 38.5203 36.056 37.4803 35.4C36.4563 34.728 35.6723 33.816 35.1283 32.664C34.6003 31.512 34.3363 30.208 34.3363 28.752V7.968C34.3363 6.528 34.6083 5.232 35.1523 4.08C35.7123 2.928 36.5123 2.016 37.5523 1.344C38.5923 0.671998 39.8243 0.335999 41.2483 0.335999C42.3203 0.335999 43.2803 0.535998 44.1283 0.935998C44.9763 1.336 45.6963 1.888 46.2883 2.592C46.8963 3.28 47.3603 4.088 47.6803 5.016C48.0003 5.928 48.1603 6.912 48.1603 7.968V12.816H43.3123V7.968C43.3123 7.232 43.1603 6.616 42.8563 6.12C42.5523 5.624 42.0483 5.376 41.3443 5.376C40.7043 5.376 40.2403 5.632 39.9523 6.144C39.6643 6.656 39.5203 7.264 39.5203 7.968V28.752C39.5203 29.456 39.6723 30.064 39.9763 30.576C40.2963 31.088 40.7523 31.344 41.3443 31.344C42.0643 31.344 42.5683 31.096 42.8563 30.6C43.1603 30.104 43.3123 29.488 43.3123 28.752V23.904H48.1603V28.752C48.1603 30.192 47.8803 31.488 47.3203 32.64C46.7603 33.792 45.9603 34.704 44.9203 35.376C43.8963 36.048 42.6723 36.384 41.2483 36.384ZM51.7794 36V0.719999H63.6354V6.048H56.9634V15.552H61.7634V20.736H56.9634V30.672H63.6354V36H51.7794ZM67.4825 36V0.719999H72.6665V31.2H79.5305V36H67.4825Z" fill="#673AB7"/>
<path d="M81.6388 36V0.719999H93.9748V6.048H86.8228V15.312H91.6228V20.64H86.8228V36H81.6388ZM96.0763 36V0.719999H101.26V31.2H108.124V36H96.0763ZM116.905 36.384C115.465 36.384 114.225 36.048 113.185 35.376C112.161 34.704 111.369 33.792 110.809 32.64C110.265 31.488 109.993 30.192 109.993 28.752V7.968C109.993 6.512 110.265 5.216 110.809 4.08C111.369 2.928 112.161 2.016 113.185 1.344C114.225 0.671998 115.465 0.335999 116.905 0.335999C118.345 0.335999 119.577 0.671998 120.601 1.344C121.641 2.016 122.433 2.928 122.977 4.08C123.537 5.232 123.817 6.528 123.817 7.968V28.752C123.817 30.192 123.537 31.488 122.977 32.64C122.433 33.792 121.641 34.704 120.601 35.376C119.577 36.048 118.345 36.384 116.905 36.384ZM116.905 31.344C117.545 31.344 117.993 31.08 118.249 30.552C118.505 30.008 118.633 29.408 118.633 28.752V7.968C118.633 7.312 118.497 6.72 118.225 6.192C117.953 5.648 117.513 5.376 116.905 5.376C116.313 5.376 115.873 5.648 115.585 6.192C115.313 6.72 115.177 7.312 115.177 7.968V28.752C115.177 29.408 115.313 30.008 115.585 30.552C115.857 31.08 116.297 31.344 116.905 31.344ZM130.988 36L126.236 0.719999H131.036L133.1 19.056L133.196 20.208H133.58L133.724 19.056L135.932 0.719999H139.676L141.884 19.056L142.028 20.208H142.412L142.508 19.056L144.572 0.719999H149.372L144.62 36H140.588L138.188 19.296L137.9 17.232H137.708L137.42 19.296L135.02 36H130.988Z" fill="#444444"/>
</svg>
