<svg width="24" height="32" viewBox="0 0 24 32" fill="none" xmlns="http://www.w3.org/2000/svg">
<path fill-rule="evenodd" clip-rule="evenodd" d="M0 4.26667C0 1.91025 1.93221 0 4.31571 0H19.151C21.5345 0 23.4667 1.91025 23.4667 4.26667V23.4667C23.4667 25.8231 21.5345 27.7333 19.151 27.7333L18.6667 27.7333L10.4 32L10.4 27.7333L4.31571 27.7333C1.93221 27.7333 0 25.8231 0 23.4667V4.26667ZM2.66666 4.26667C2.66666 3.38301 3.38301 2.66667 4.26666 2.66667H19.2C20.0836 2.66667 20.8 3.38301 20.8 4.26667V23.4667C20.8 24.3503 20.0836 25.0667 19.2 25.0667H4.26666C3.38301 25.0667 2.66666 24.3503 2.66666 23.4667V4.26667ZM9.8849 22.8792H7.00989C6.95156 22.8792 6.92656 22.8375 6.93489 22.7542L9.85989 13.6167L6.98489 5.16667C6.96823 5.1 6.99323 5.06667 7.05989 5.06667H9.93489C10.0182 5.06667 10.0682 5.1 10.0849 5.16667L11.7974 11.2542L13.5349 5.16667C13.5516 5.1 13.6057 5.06667 13.6974 5.06667H16.5349C16.6016 5.06667 16.6266 5.1 16.6099 5.16667L13.7474 13.5917L16.6349 22.7542C16.6682 22.8375 16.6432 22.8792 16.5599 22.8792H13.6974C13.6224 22.8792 13.5682 22.8375 13.5349 22.7542L11.7974 16.1417L10.0349 22.7542C10.0266 22.8375 9.97656 22.8792 9.8849 22.8792Z" fill="#673AB7"/>
</svg>
